name C:\Users\u0101727\Documents\MyRepositories\upper-imu-dc\Results\main_tracking\Case_48\kinematics_filtered.mot
datacolumns 10
datarows 23
range 2.80000000 3.02000000
endheader 
time	clav_prot	clav_elev	scapula_abduction	scapula_elevation	scapula_upward_rot	scapula_winging	plane_elv	shoulder_elv	axial_rot	
          2.80000000	        -18.28633496	         -6.44659199	         -6.95025607	         -4.28294742	          8.70707568	          6.68462261	        -23.40182879	         18.46473447	         42.74281274	
          2.81000000	        -18.30598750	         -6.43915083	         -6.98597673	         -4.27410307	          8.69311566	          6.69067836	        -23.44725523	         18.41137304	         42.72579359	
          2.82000000	        -18.32697398	         -6.43172706	         -7.02498911	         -4.26522384	          8.67864009	          6.69693771	        -23.49271227	         18.35707901	         42.70762912	
          2.83000000	        -18.34959698	         -6.42451927	         -7.06831558	         -4.25645265	          8.66349583	          6.70345150	        -23.53724413	         18.30229427	         42.68769271	
          2.84000000	        -18.37378905	         -6.41776021	         -7.11607577	         -4.24790638	          8.64744722	          6.71030343	        -23.57994968	         18.24733504	         42.66522092	
          2.85000000	        -18.39922862	         -6.41169481	         -7.16775718	         -4.23967632	          8.63020711	          6.71759791	        -23.61997457	         18.19245624	         42.63936931	
          2.86000000	        -18.42547564	         -6.40655979	         -7.22253399	         -4.23183097	          8.61146663	          6.72544885	        -23.65650531	         18.13791030	         42.60926460	
          2.87000000	        -18.45206665	         -6.40257210	         -7.27949137	         -4.22442091	          8.59091871	          6.73397148	        -23.68876684	         18.08399135	         42.57404407	
          2.88000000	        -18.47857518	         -6.39992429	         -7.33776852	         -4.21748471	          8.56827502	          6.74327679	        -23.71602271	         18.03106443	         42.53287498	
          2.89000000	        -18.50464484	         -6.39878422	         -7.39663788	         -4.21105465	          8.54327761	          6.75346817	        -23.73757639	         17.97958244	         42.48495017	
          2.90000000	        -18.53000256	         -6.39929674	         -7.45553725	         -4.20516138	          8.51570689	          6.76463903	        -23.75277201	         17.93009436	         42.42945989	
          2.91000000	        -18.55445839	         -6.40158553	         -7.51407013	         -4.19983712	          8.48538739	          6.77687096	        -23.76099373	         17.88324732	         42.36554443	
          2.92000000	        -18.57789697	         -6.40575393	         -7.57198622	         -4.19511702	          8.45219229	          6.79023168	        -23.76166372	         17.83978469	         42.29223544	
          2.93000000	        -18.60026486	         -6.41188413	         -7.62915180	         -4.19103897	          8.41604779	          6.80477262	        -23.75423961	         17.80054077	         42.20839677	
          2.94000000	        -18.62155630	         -6.42003472	         -7.68551640	         -4.18764195	          8.37693766	          6.82052590	        -23.73821300	         17.76643228	         42.11267697	
          2.95000000	        -18.64179983	         -6.43023665	         -7.74108081	         -4.18496341	          8.33490831	          6.83750087	        -23.71311079	         17.73844628	         42.00348483	
          2.96000000	        -18.66104672	         -6.44248800	         -7.79586917	         -4.18303604	          8.29007457	          6.85568029	        -23.67850103	         17.71762411	         41.87899715	
          2.97000000	        -18.67936240	         -6.45674815	         -7.84990695	         -4.18188437	          8.24262604	          6.87501636	        -23.63400436	         17.70504123	         41.73720389	
          2.98000000	        -18.69682076	         -6.47293187	         -7.90320541	         -4.18152168	          8.19283360	          6.89542703	        -23.57931113	         17.70178320	         41.57598980	
          2.99000000	        -18.71350147	         -6.49090417	         -7.95575230	         -4.18194742	          8.14105542	          6.91679289	        -23.51420343	         17.70891907	         41.39324626	
          3.00000000	        -18.72948952	         -6.51047638	         -8.00750793	         -4.18314553	          8.08774191	          6.93895490	        -23.43858041	         17.72747371	         41.18700079	
          3.01000000	        -18.74487637	         -6.53140433	         -8.05840536	         -4.18508383	          8.03343831	          6.96171356	        -23.35248432	         17.75840125	         40.95554879	
          3.02000000	        -18.75976150	         -6.55338896	         -8.10835307	         -4.18771453	          7.97878438	          6.98482948	        -23.25612484	         17.80256171	         40.69757023	
